HIERARCHY
ROOT Hips
{
	OFFSET 0.000000 0.000000 0.000000
	CHANNELS 6 Xposition Yposition Zposition Zrotation Yrotation Xrotation 
	JOINT LHipJoint
	{
		OFFSET 0.000000 0.000000 0.000000
		CHANNELS 3 Zrotation Yrotation Xrotation
		JOINT LeftUpLeg
		{
			OFFSET 1.363060 -1.794630 0.839290
			CHANNELS 3 Zrotation Yrotation Xrotation
			JOINT LeftLeg
			{
				OFFSET 2.448110 -6.726130 0.000000
				CHANNELS 3 Zrotation Yrotation Xrotation
				JOINT LeftFoot
				{
					OFFSET 2.562200 -7.039590 0.000000
					CHANNELS 3 Zrotation Yrotation Xrotation
					JOINT LeftToeBase
					{
						OFFSET 0.157640 -0.433110 2.322550
						CHANNELS 3 Zrotation Yrotation Xrotation
						End Site
						{
							OFFSET 0.000000 0.000000 0.000000
						}
					}
				}
			}
		}
	}
	JOINT RHipJoint
	{
		OFFSET 0.000000 0.000000 0.000000
		CHANNELS 3 Zrotation Yrotation Xrotation
		JOINT RightUpLeg
		{
			OFFSET -1.305520 -1.794630 0.839290
			CHANNELS 3 Zrotation Yrotation Xrotation
			JOINT RightLeg
			{
				OFFSET -2.542530 -6.985550 0.000000
				CHANNELS 3 Zrotation Yrotation Xrotation
				JOINT RightFoot
				{
					OFFSET -2.568260 -7.056230 0.000000
					CHANNELS 3 Zrotation Yrotation Xrotation
					JOINT RightToeBase
					{
						OFFSET -0.164730 -0.452590 2.363150
						CHANNELS 3 Zrotation Yrotation Xrotation
						End Site
						{
							OFFSET 0.000000 0.000000 0.000000
						}
					}
				}
			}
		}
	}
	JOINT LowerBack
	{
		OFFSET 0.000000 0.000000 0.000000
		CHANNELS 3 Zrotation Yrotation Xrotation
		JOINT Spine
		{
			OFFSET 0.028270 2.035590 -0.193380
			CHANNELS 3 Zrotation Yrotation Xrotation
			JOINT Spine1
			{
				OFFSET 0.056720 2.048850 -0.042750
				CHANNELS 3 Zrotation Yrotation Xrotation
				JOINT Neck
				{
					OFFSET 0.000000 0.000000 0.000000
					CHANNELS 3 Zrotation Yrotation Xrotation
					JOINT Neck1
					{
						OFFSET -0.054170 1.746240 0.172020
						CHANNELS 3 Zrotation Yrotation Xrotation
						JOINT Head
						{
							OFFSET 0.104070 1.761360 -0.123970
							CHANNELS 3 Zrotation Yrotation Xrotation
							End Site
							{
								OFFSET 0.000000 0.000000 0.000000
							}
						}
					}
				}
				JOINT LeftShoulder
				{
					OFFSET 0.000000 0.000000 0.000000
					CHANNELS 3 Zrotation Yrotation Xrotation
					JOINT LeftArm
					{
						OFFSET 3.362410 1.200890 -0.311210
						CHANNELS 3 Zrotation Yrotation Xrotation
						JOINT LeftForeArm
						{
							OFFSET 4.983000 -0.000000 -0.000000
							CHANNELS 3 Zrotation Yrotation Xrotation
							JOINT LeftHand
							{
								OFFSET 3.483560 -0.000000 -0.000000
								CHANNELS 3 Zrotation Yrotation Xrotation
								JOINT LeftFingerBase
								{
									OFFSET 0.000000 0.000000 0.000000
									CHANNELS 3 Zrotation Yrotation Xrotation
									JOINT LeftHandIndex1
									{
										OFFSET 0.715260 -0.000000 -0.000000
										CHANNELS 3 Zrotation Yrotation Xrotation
										End Site
										{
											OFFSET 0.000000 0.000000 0.000000
										}
									}
								}
								JOINT LThumb
								{
									OFFSET 0.000000 0.000000 0.000000
									CHANNELS 3 Zrotation Yrotation Xrotation
									End Site
									{
										OFFSET 0.000000 0.000000 0.000000
									}
								}
							}
						}
					}
				}
				JOINT RightShoulder
				{
					OFFSET 0.000000 0.000000 0.000000
					CHANNELS 3 Zrotation Yrotation Xrotation
					JOINT RightArm
					{
						OFFSET -3.136600 1.374050 -0.404650
						CHANNELS 3 Zrotation Yrotation Xrotation
						JOINT RightForeArm
						{
							OFFSET -5.241900 -0.000000 -0.000000
							CHANNELS 3 Zrotation Yrotation Xrotation
							JOINT RightHand
							{
								OFFSET -3.444170 -0.000000 -0.000000
								CHANNELS 3 Zrotation Yrotation Xrotation
								JOINT RightFingerBase
								{
									OFFSET 0.000000 0.000000 0.000000
									CHANNELS 3 Zrotation Yrotation Xrotation
									JOINT RightHandIndex1
									{
										OFFSET -0.622530 -0.000000 -0.000000
										CHANNELS 3 Zrotation Yrotation Xrotation
										End Site
										{
											OFFSET 0.000000 0.000000 0.000000
										}
									}
								}
								JOINT RThumb
								{
									OFFSET 0.000000 0.000000 0.000000
									CHANNELS 3 Zrotation Yrotation Xrotation
									End Site
									{
										OFFSET 0.000000 0.000000 0.000000
									}
								}
							}
						}
					}
				}
			}
		}
	}
}
MOTION
Frames: 7
Frame Time: 0.008333
-3.207163 17.604305 3.507448 7.068817 1.831351 8.491154 -1.602962 3.027267 2.646162 -4.781197 -7.981920 -9.363847 -1.052684 3.879072 12.459393 -2.381892 12.000277 10.252468 3.494900 -11.456100 -33.834000 -0.091884 -2.803147 1.499610 -1.132655 11.323655 -18.631678 -2.286217 -10.952948 31.747850 0.413021 -4.533994 -9.479739 -0.317200 3.620300 -10.010800 6.980636 3.462740 8.666001 3.364873 5.136096 -0.056393 0.226469 3.062424 -3.396595 -10.239511 -6.207306 -30.416320 2.589599 -4.045264 7.848127 2.043500 -2.277800 11.330500 -9.495841 -0.965550 -2.261830 -70.326750 10.861277 22.770874 29.289174 -42.803610 -13.757909 -0.076563 -1.432170 2.966434 22.717166 17.984205 7.974800 -7.125000 0.000000 0.000000 -5.638000 50.930200 -0.826000 8.680366 2.994071 -1.539216 17.323589 26.588864 46.711003 -39.591906 45.612468 -19.784709 0.743811 -1.345709 54.715450 -65.799273 2.234217 -5.917400 7.125000 0.000000 0.000000 -28.973800 -23.336900 -17.404200 
-3.123180 17.582151 3.520136 6.930532 1.520822 8.344279 -1.598096 3.062805 2.701497 -4.983782 -7.659210 -9.012739 -1.077208 3.795558 12.311893 -2.418842 11.862275 9.227742 3.457000 -11.400500 -33.642700 -0.108462 -2.814865 1.485439 -1.317614 11.653567 -18.502415 -2.308488 -10.991260 31.849968 0.384751 -4.436559 -9.551891 -0.325400 3.666300 -10.139700 6.881416 3.543801 8.677036 3.346588 5.234110 -0.014967 0.208069 3.108852 -3.347523 -10.344415 -6.163232 -30.275195 2.762996 -3.954391 7.572537 2.142100 -2.217300 11.211700 -9.501660 -0.965498 -2.263412 -70.195147 10.950788 22.900335 29.295135 -42.822570 -13.763771 -0.053633 -1.457843 3.254293 21.963303 19.400946 8.207700 -7.125000 0.000000 0.000000 -6.853500 52.301800 -1.236600 8.675155 3.025203 -1.531985 16.281400 26.481342 46.130906 -39.094689 45.370985 -19.436526 0.765882 -1.347478 54.774511 -65.879174 1.830399 -4.932900 7.125000 0.000000 0.000000 -29.289200 -24.267400 -16.904900 
-3.038996 17.559091 3.527588 6.891478 1.341893 8.250654 -1.600139 3.067826 2.728706 -5.325235 -7.185329 -8.909423 -1.085267 3.773385 12.343347 -2.357896 11.437520 8.461062 3.464400 -11.411300 -33.680000 -0.129905 -2.822128 1.479230 -1.576362 11.856964 -18.397679 -2.323533 -11.016022 31.902869 0.382657 -4.452366 -9.659349 -0.327400 3.677700 -10.171700 6.681748 3.571403 8.637748 3.336211 5.242600 0.023236 0.264807 3.116616 -3.281506 -10.417470 -6.092266 -30.199085 2.784607 -3.826569 7.250540 2.185400 -2.155900 11.076100 -9.496287 -0.974951 -2.264913 -70.131977 11.084374 22.981993 29.385815 -42.903471 -13.818167 -0.035150 -1.490088 3.652202 21.431145 21.417561 8.708000 -7.125000 0.000000 0.000000 -8.146000 54.321200 -1.875300 8.663064 3.053495 -1.537617 15.076926 26.512014 45.492152 -38.724873 45.200705 -19.175482 0.819703 -1.325316 54.764543 -65.741858 0.360948 -1.287600 7.125000 0.000000 0.000000 -30.217000 -27.697500 -14.704600 
-2.955416 17.539253 3.530911 6.825963 1.279205 8.167604 -1.600327 3.047930 2.729383 -5.679096 -6.615834 -9.028454 -1.067978 3.834972 12.601816 -2.239799 10.830033 7.784403 3.413700 -11.336500 -33.423200 -0.143118 -2.826895 1.477778 -1.772933 12.001558 -18.272371 -2.332808 -11.029040 31.930620 0.420391 -4.617410 -9.732933 -0.362700 3.869000 -10.708500 6.501447 3.560674 8.435418 3.348786 5.174370 0.175526 0.351847 3.091656 -2.948523 -10.416017 -5.995070 -30.400595 2.796967 -3.657974 6.918347 2.216900 -2.068200 10.971900 -9.482515 -0.994409 -2.248515 -70.123339 10.834627 22.954647 29.215255 -42.771702 -13.689414 -0.031317 -1.503119 3.821703 21.168127 22.207681 8.866300 -7.125000 0.000000 0.000000 -8.745600 55.092700 -2.179700 8.649928 3.092646 -1.558070 13.595350 26.777714 44.571934 -38.375279 45.068508 -18.937376 0.871218 -1.307512 54.710441 -65.871485 -0.761577 1.531600 7.125000 0.000000 0.000000 -31.175900 -30.313400 -12.988200 
-2.873950 17.522537 3.528796 6.741950 1.324201 8.011558 -1.600695 3.023896 2.716694 -6.008102 -6.114234 -9.239418 -1.025494 3.979491 13.063426 -2.174906 10.422043 7.005682 3.261400 -11.106600 -32.640200 -0.148883 -2.835844 1.489554 -1.909519 12.138120 -18.062833 -2.339122 -11.030960 31.945954 0.505940 -4.971904 -9.824706 -0.442000 4.266000 -11.826200 6.374356 3.524868 8.459561 3.338150 5.108861 0.246224 0.361438 3.065607 -2.854888 -10.335326 -5.870988 -30.480824 2.787510 -3.513129 6.626846 2.224600 -1.991600 10.864900 -9.478215 -1.016906 -2.234894 -70.051434 10.574170 22.978132 28.771976 -42.430047 -13.400984 -0.068134 -1.452219 3.710926 21.852720 19.071704 8.040400 -7.125000 0.000000 0.000000 -6.854500 51.932100 -1.174500 8.631108 3.126265 -1.568193 12.202984 26.941401 43.641640 -38.152698 45.005095 -18.799406 0.909653 -1.295113 54.775016 -66.152369 -1.571703 3.638000 7.125000 0.000000 0.000000 -32.070900 -32.225900 -11.705400 
-2.791176 17.507029 3.529803 6.614052 1.486823 7.915832 -1.598556 2.990707 2.689486 -6.277320 -5.738257 -9.560651 -0.965840 4.182188 13.664391 -2.126789 10.094408 6.211793 3.139900 -10.918200 -32.004400 -0.151673 -2.843863 1.513718 -2.007639 12.174065 -17.849731 -2.338666 -11.017305 31.926942 0.535425 -5.117045 -9.979655 -0.454300 4.323900 -11.989700 6.350475 3.486307 8.502009 3.329069 5.059787 0.204386 0.318922 3.046523 -2.927565 -10.365896 -5.779455 -30.272104 2.800704 -3.401363 6.211397 2.259600 -1.935000 10.678000 -9.481959 -1.028990 -2.235072 -69.946654 10.472607 23.041803 28.381261 -42.127804 -13.142849 -0.098374 -1.415539 4.176528 22.226064 17.062160 7.425100 -7.125000 0.000000 0.000000 -5.873200 49.855200 -0.705100 8.600570 3.156271 -1.561329 10.808776 26.958202 42.834321 -38.106222 45.040423 -18.796717 0.934770 -1.281184 54.640910 -66.330019 -1.867745 4.495100 7.125000 0.000000 0.000000 -32.491500 -32.988000 -11.188100 
-2.705481 17.491723 3.541685 6.585036 1.505989 7.853141 -1.600051 2.954078 2.654165 -6.697979 -5.415989 -9.830031 -0.899764 4.404228 14.330207 -2.117686 9.909733 5.260406 3.026500 -10.737900 -31.401000 -0.166462 -2.853914 1.540772 -2.252508 12.176256 -17.654831 -2.331369 -10.994787 31.853282 0.546545 -5.162290 -9.989043 -0.460200 4.351600 -12.068000 6.230723 3.502352 8.437716 3.262443 5.055120 0.175928 0.242109 3.052169 -2.922337 -10.220296 -5.635292 -30.162711 2.674148 -3.288273 5.808383 2.215300 -1.883000 10.500700 -9.478176 -1.048799 -2.232860 -69.779514 10.424185 23.144142 28.082866 -41.900701 -12.932224 -0.088369 -1.436732 4.649649 21.627000 18.144354 7.603700 -7.125000 0.000000 0.000000 -6.793000 50.906700 -0.992500 8.567111 3.163497 -1.553735 9.372083 26.977571 41.883014 -38.316441 45.229347 -18.989884 0.959641 -1.252919 54.471747 -66.207075 -2.296957 5.630200 7.125000 0.000000 0.000000 -32.812600 -34.043800 -10.319800 
